# xmcd CD database file
#
# Track frame offsets:
#	150
#	15965
#	34445
#	50495
#	70837
#	91777
#	103145
#	118245
#	134700
#	155807
#
# Disc length: 2301 seconds
#
# Revision: 9
# Processed by: cddbd v1.5.2PL0 Copyright (c) Steve Scherf et al.
# Submitted via: CDex 1.51
#
DISCID=8c08fb0a
DTITLE=George Strait - One Step At A Time
DYEAR=1998
DGENRE=Country
TTITLE0=I Just Want To Dance With You
TTITLE1=One Step At A Time
TTITLE2=True
TTITLE3=Remember The Alamo
TTITLE4=Maria
TTITLE5=We Really Shouldn't Be Doing This
TTITLE6=Why Not Now
TTITLE7=That's The Breaks
TTITLE8=Neon Row
TTITLE9=You Haven't Left Me Yet
EXTD=YEAR: 1998
EXTT0=
EXTT1=
EXTT2=
EXTT3=
EXTT4=
EXTT5=
EXTT6=
EXTT7=
EXTT8=
EXTT9=
PLAYORDER=
